<svg width="16" height="19" viewBox="0 0 16 19" fill="none" xmlns="http://www.w3.org/2000/svg">
<path d="M12.5999 3.0451C11.9165 2.26462 11.5398 1.2625 11.5399 0.225098H8.44991V12.6251C8.42657 13.2963 8.14343 13.9322 7.66022 14.3986C7.17701 14.865 6.53151 15.1255 5.85991 15.1251C4.43991 15.1251 3.25991 13.9651 3.25991 12.5251C3.25991 10.8051 4.91991 9.5151 6.62991 10.0451V6.8851C3.17991 6.4251 0.159912 9.1051 0.159912 12.5251C0.159912 15.8551 2.91991 18.2251 5.84991 18.2251C8.98991 18.2251 11.5399 15.6751 11.5399 12.5251V6.2351C12.7929 7.13495 14.2973 7.61774 15.8399 7.6151V4.5251C15.8399 4.5251 13.9599 4.6151 12.5999 3.0451Z" fill="#F7F4E8"/>
</svg>
