<svg width="25" height="24" viewBox="0 0 25 24" fill="none" xmlns="http://www.w3.org/2000/svg">
<path d="M3.3335 13.0827C3.3335 13.0059 3.3335 12.9675 3.3356 12.9351C3.36819 12.4339 3.76744 12.0347 4.26861 12.0021C4.30102 12 4.3394 12 4.41617 12H20.2508C20.3276 12 20.366 12 20.3984 12.0021C20.8996 12.0347 21.2988 12.4339 21.3314 12.9351C21.3335 12.9675 21.3335 13.0059 21.3335 13.0827C21.3335 13.4784 21.3335 13.6762 21.3194 13.8977C21.1108 17.1854 18.3165 20.0867 15.0388 20.4186C14.818 20.441 14.6892 20.4458 14.4317 20.4555C13.6975 20.4831 12.9828 20.5 12.3335 20.5C11.6842 20.5 10.9695 20.4831 10.2353 20.4555C9.97774 20.4458 9.84895 20.441 9.62817 20.4186C6.35054 20.0867 3.55622 17.1854 3.34755 13.8977C3.3335 13.6762 3.3335 13.4784 3.3335 13.0827Z" stroke="#294023" stroke-width="1.5"/>
<path d="M6.3335 20L5.3335 22" stroke="#294023" stroke-width="1.5" stroke-linecap="round"/>
<path d="M18.3335 20L19.3335 22" stroke="#294023" stroke-width="1.5" stroke-linecap="round"/>
<path d="M2.3335 12H22.3335" stroke="#294023" stroke-width="1.5" stroke-linecap="round"/>
<path d="M2.5835 13C2.5835 13.4142 2.91928 13.75 3.3335 13.75C3.74771 13.75 4.0835 13.4142 4.0835 13H2.5835ZM7.93323 3.49934L8.62959 3.22079L8.62959 3.22079L7.93323 3.49934ZM8.31235 4.44713L8.64063 5.12147L8.31235 4.44713ZM6.69561 6.19232L7.3905 6.47451L6.69561 6.19232ZM10.9105 4.37783L10.6159 5.06753L10.9105 4.37783ZM6.67908 8.74156L5.9813 9.01651C6.05571 9.20535 6.20347 9.35596 6.39085 9.43396C6.57823 9.51197 6.78922 9.51069 6.97564 9.43044L6.67908 8.74156ZM12.6398 6.17548L12.9364 6.86436C13.3085 6.70417 13.4861 6.27744 13.3376 5.90053L12.6398 6.17548ZM4.0835 13V4.38516H2.5835V13H4.0835ZM5.71866 2.75C6.38729 2.75 6.98855 3.15708 7.23687 3.77788L8.62959 3.22079C8.15347 2.0305 7.00064 1.25 5.71866 1.25V2.75ZM4.0835 4.38516C4.0835 3.48209 4.81558 2.75 5.71866 2.75V1.25C3.98716 1.25 2.5835 2.65366 2.5835 4.38516H4.0835ZM7.23687 3.77788L7.61599 4.72568L9.00871 4.16859L8.62959 3.22079L7.23687 3.77788ZM7.37687 8.46661C7.13517 7.85321 7.11988 7.14092 7.3905 6.47451L6.00073 5.91014C5.58042 6.94515 5.60308 8.05665 5.9813 9.01651L7.37687 8.46661ZM12.3433 5.4866L6.38253 8.05268L6.97564 9.43044L12.9364 6.86436L12.3433 5.4866ZM10.6159 5.06753C11.2374 5.33307 11.7005 5.83741 11.9421 6.45043L13.3376 5.90053C12.9593 4.94029 12.2205 4.12189 11.2052 3.68813L10.6159 5.06753ZM7.3905 6.47451C7.64468 5.8486 8.10177 5.3838 8.64063 5.12147L7.98407 3.77279C7.11687 4.19496 6.39602 4.93671 6.00073 5.91014L7.3905 6.47451ZM8.64063 5.12147C9.24802 4.82579 9.95855 4.78672 10.6159 5.06753L11.2052 3.68813C10.1274 3.22768 8.96224 3.29661 7.98407 3.77279L8.64063 5.12147Z" fill="#294023"/>
</svg>
