<svg width="25" height="24" viewBox="0 0 25 24" fill="none" xmlns="http://www.w3.org/2000/svg">
<path d="M19.3335 20V18.5M5.3335 20V18.5" stroke="#294023" stroke-width="1.5" stroke-linecap="round"/>
<path d="M2.3335 15C2.3335 14.0681 2.3335 13.6022 2.48574 13.2346C2.68872 12.7446 3.07807 12.3552 3.56813 12.1522C3.93567 12 4.40161 12 5.3335 12H19.3335C20.2654 12 20.7313 12 21.0989 12.1522C21.5889 12.3552 21.9783 12.7446 22.1813 13.2346C22.3335 13.6022 22.3335 14.0681 22.3335 15C22.3335 15.9319 22.3335 16.3978 22.1813 16.7654C21.9783 17.2554 21.5889 17.6448 21.0989 17.8478C20.7313 18 20.2654 18 19.3335 18H5.3335C4.40161 18 3.93567 18 3.56813 17.8478C3.07807 17.6448 2.68872 17.2554 2.48574 16.7654C2.3335 16.3978 2.3335 15.9319 2.3335 15Z" stroke="#294023" stroke-width="1.5"/>
<path d="M21.3335 12C21.3335 8.22876 21.3335 6.34315 20.1619 5.17157C18.9904 4 17.1047 4 13.3335 4H11.3335C7.56226 4 5.67664 4 4.50507 5.17157C3.3335 6.34315 3.3335 8.22876 3.3335 12" stroke="#294023" stroke-width="1.5"/>
<path d="M18.8335 12V10.5C18.8335 8.61438 18.8335 7.67157 18.2477 7.08579C17.6619 6.5 16.7191 6.5 14.8335 6.5H9.8335C7.94788 6.5 7.00507 6.5 6.41928 7.08579C5.8335 7.67157 5.8335 8.61438 5.8335 10.5V12" stroke="#294023" stroke-width="1.5"/>
<path d="M12.3335 7V12" stroke="#294023" stroke-width="1.5"/>
</svg>
