<svg width="17" height="16" viewBox="0 0 17 16" fill="none" xmlns="http://www.w3.org/2000/svg">
<path fill-rule="evenodd" clip-rule="evenodd" d="M2.50024 6.76211C2.50024 3.4961 5.10359 0.833252 8.33358 0.833252C11.5636 0.833252 14.1669 3.4961 14.1669 6.76211C14.1669 8.33885 13.7176 10.0319 12.9232 11.4945C12.1298 12.9553 10.9707 14.2247 9.52059 14.9025C8.76729 15.2546 7.89987 15.2546 7.14657 14.9025C5.69649 14.2247 4.53732 12.9553 3.74395 11.4945C2.9496 10.0319 2.50024 8.33885 2.50024 6.76211ZM8.33358 1.83325C5.67253 1.83325 3.50024 4.03157 3.50024 6.76211C3.50024 8.16016 3.902 9.69019 4.62271 11.0172C5.3444 12.3461 6.36426 13.433 7.57001 13.9966C8.05495 14.2233 8.61221 14.2233 9.09715 13.9966C10.3029 13.433 11.3228 12.3461 12.0444 11.0172C12.7652 9.69019 13.1669 8.16016 13.1669 6.76211C13.1669 4.03157 10.9946 1.83325 8.33358 1.83325ZM8.33358 5.16658C7.50515 5.16658 6.83358 5.83816 6.83358 6.66658C6.83358 7.49501 7.50515 8.16658 8.33358 8.16658C9.162 8.16658 9.83358 7.49501 9.83358 6.66658C9.83358 5.83816 9.162 5.16658 8.33358 5.16658ZM5.83358 6.66658C5.83358 5.28587 6.95287 4.16658 8.33358 4.16658C9.71429 4.16658 10.8336 5.28587 10.8336 6.66658C10.8336 8.0473 9.71429 9.16658 8.33358 9.16658C6.95287 9.16658 5.83358 8.0473 5.83358 6.66658Z" fill="#294023"/>
</svg>
