<svg width="24" height="24" viewBox="0 0 24 24" fill="none" xmlns="http://www.w3.org/2000/svg">
<path d="M15.0002 12.75C15.4145 12.75 15.7502 12.4142 15.7502 12C15.7502 11.5858 15.4145 11.25 15.0002 11.25H9.00024C8.58603 11.25 8.25024 11.5858 8.25024 12C8.25024 12.4142 8.58603 12.75 9.00024 12.75H15.0002Z" fill="#294023" fill-opacity="0.5"/>
<path fill-rule="evenodd" clip-rule="evenodd" d="M12.0002 1.25C6.06318 1.25 1.25024 6.06294 1.25024 12C1.25024 17.9371 6.06318 22.75 12.0002 22.75C17.9373 22.75 22.7502 17.9371 22.7502 12C22.7502 6.06294 17.9373 1.25 12.0002 1.25ZM2.75024 12C2.75024 6.89137 6.89161 2.75 12.0002 2.75C17.1089 2.75 21.2502 6.89137 21.2502 12C21.2502 17.1086 17.1089 21.25 12.0002 21.25C6.89161 21.25 2.75024 17.1086 2.75024 12Z" fill="#294023" fill-opacity="0.5"/>
</svg>
