<svg width="25" height="24" viewBox="0 0 25 24" fill="none" xmlns="http://www.w3.org/2000/svg">
<path d="M4.37887 18.5083C3.01529 17.1448 2.3335 16.463 2.3335 15.6157C2.3335 14.7685 3.01529 14.0867 4.37887 12.7231L13.0566 4.04537C14.4202 2.68179 15.102 2 15.9492 2C16.7965 2 17.4782 2.68179 18.8418 4.04537L20.2881 5.49167C21.6517 6.85525 22.3335 7.53704 22.3335 8.38426C22.3335 9.23148 21.6517 9.91327 20.2881 11.2769L11.6103 19.9546C10.2468 21.3182 9.56498 22 8.71776 22C7.87054 22 7.18874 21.3182 5.82516 19.9546L4.37887 18.5083Z" stroke="#294023" stroke-width="1.5"/>
<path d="M8.79785 8.46436L10.2121 9.87857" stroke="#294023" stroke-width="1.5" stroke-linecap="round"/>
<path d="M13.0405 4.22192L14.4547 5.63614" stroke="#294023" stroke-width="1.5" stroke-linecap="round"/>
<path d="M4.55542 12.707L5.96963 14.1212" stroke="#294023" stroke-width="1.5" stroke-linecap="round"/>
<path d="M6.67676 10.5857L8.79808 12.707" stroke="#294023" stroke-width="1.5" stroke-linecap="round"/>
<path d="M10.9192 6.34326L13.0405 8.46458" stroke="#294023" stroke-width="1.5" stroke-linecap="round"/>
</svg>
