<svg width="25" height="24" viewBox="0 0 25 24" fill="none" xmlns="http://www.w3.org/2000/svg">
<path d="M9.48666 5.40838C10.7533 3.13613 11.3866 2 12.3335 2C13.2804 2 13.9137 3.13612 15.1803 5.40837L15.508 5.99623C15.868 6.64193 16.0479 6.96479 16.3286 7.17781C16.6092 7.39083 16.9586 7.4699 17.6576 7.62805L18.294 7.77203C20.7536 8.32856 21.9835 8.60682 22.2761 9.54773C22.5687 10.4886 21.7302 11.4691 20.0534 13.4299L19.6196 13.9372C19.1431 14.4944 18.9048 14.773 18.7976 15.1177C18.6905 15.4624 18.7265 15.8341 18.7985 16.5776L18.8641 17.2544C19.1176 19.8706 19.2444 21.1787 18.4783 21.7602C17.7123 22.3417 16.5608 21.8115 14.2578 20.7512L13.662 20.4768C13.0076 20.1755 12.6804 20.0248 12.3335 20.0248C11.9866 20.0248 11.6594 20.1755 11.005 20.4768L10.4092 20.7512C8.10617 21.8115 6.95467 22.3417 6.18864 21.7602C5.42262 21.1787 5.54938 19.8706 5.80289 17.2544L5.86848 16.5776C5.94052 15.8341 5.97654 15.4624 5.86936 15.1177C5.76218 14.773 5.52392 14.4944 5.04741 13.9372L4.61359 13.4299C2.93675 11.4691 2.09832 10.4886 2.39092 9.54773C2.68351 8.60682 3.91335 8.32856 6.37303 7.77203L7.00938 7.62805C7.70835 7.4699 8.05783 7.39083 8.33844 7.17781C8.61905 6.96479 8.79902 6.64194 9.15896 5.99623L9.48666 5.40838Z" fill="#294023"/>
</svg>
