<svg width="24" height="24" viewBox="0 0 24 24" fill="none" xmlns="http://www.w3.org/2000/svg">
<path fill-rule="evenodd" clip-rule="evenodd" d="M17 3.75C16.0335 3.75 15.25 4.5335 15.25 5.5C15.25 6.4665 16.0335 7.25 17 7.25C17.9665 7.25 18.75 6.4665 18.75 5.5C18.75 4.5335 17.9665 3.75 17 3.75ZM13.75 5.5C13.75 3.70507 15.2051 2.25 17 2.25C18.795 2.25 20.25 3.70507 20.25 5.5C20.25 7.29493 18.795 8.75 17 8.75C15.2051 8.75 13.75 7.29493 13.75 5.5ZM8.43841 4.63039C8.18234 4.34018 7.73451 4.3262 7.46084 4.59987C7.21292 4.84779 7.19767 5.24479 7.42585 5.51099L8.41356 6.66332C9.32021 7.72108 9.05746 9.34019 7.86285 10.057L4.38592 12.1431C4.03073 12.3562 3.57004 12.2411 3.35693 11.8859C3.14382 11.5307 3.25899 11.07 3.61418 10.8569L7.0911 8.77072C7.48931 8.5318 7.57689 7.99209 7.27467 7.63951L6.28696 6.48717C5.54869 5.62586 5.59802 4.34136 6.40018 3.53921C7.28566 2.65373 8.73464 2.69896 9.56317 3.63796L16.0624 11.0038C16.3365 11.3144 16.3069 11.7883 15.9963 12.0624C15.6857 12.3364 15.2117 12.3068 14.9377 11.9962L8.43841 4.63039ZM4.56991 12.8657C5.25676 11.7919 6.72737 11.8271 7.45758 12.7618C8.44758 14.0291 9.82953 15.25 12 15.25C14.2087 15.25 15.5698 14.2712 16.505 13.0209C17.225 12.0585 18.7907 11.9013 19.5456 13.0435C20.1707 13.9891 20.8487 14.7306 22.1721 15.0424C22.5752 15.1374 22.8251 15.5412 22.7301 15.9444C22.6351 16.3476 22.2312 16.5974 21.828 16.5024C19.976 16.066 19.0204 14.9692 18.2943 13.8705C18.2373 13.7844 18.1517 13.7406 18.0407 13.7427C17.9221 13.7449 17.7935 13.8027 17.7061 13.9195C16.5385 15.4804 14.7603 16.75 12 16.75C9.15747 16.75 7.38864 15.1101 6.27553 13.6853C6.2038 13.5934 6.1102 13.5585 6.02969 13.5602C5.95376 13.5619 5.8843 13.5946 5.83353 13.674C5.09404 14.8301 4.13916 16.0389 2.17206 16.5024C1.76889 16.5974 1.36504 16.3476 1.27004 15.9444C1.17504 15.5412 1.42486 15.1374 1.82803 15.0424C3.22898 14.7123 3.90762 13.9011 4.56991 12.8657ZM4.56991 17.8657C5.25676 16.7919 6.72737 16.8271 7.45758 17.7618C8.44758 19.0291 9.82953 20.25 12 20.25C14.2087 20.25 15.5698 19.2712 16.505 18.0209C17.225 17.0585 18.7907 16.9013 19.5456 18.0435C20.1707 18.9891 20.8487 19.7306 22.1721 20.0424C22.5752 20.1374 22.8251 20.5412 22.7301 20.9444C22.6351 21.3476 22.2312 21.5974 21.828 21.5024C19.976 21.066 19.0204 19.9692 18.2943 18.8705C18.2373 18.7844 18.1517 18.7406 18.0407 18.7427C17.9221 18.7449 17.7935 18.8027 17.7061 18.9195C16.5385 20.4804 14.7603 21.75 12 21.75C9.15747 21.75 7.38864 20.1101 6.27553 18.6853C6.2038 18.5934 6.1102 18.5585 6.02969 18.5602C5.95376 18.5619 5.8843 18.5946 5.83353 18.674C5.09404 19.8301 4.13916 21.0389 2.17206 21.5024C1.76889 21.5974 1.36504 21.3476 1.27004 20.9444C1.17504 20.5412 1.42486 20.1374 1.82803 20.0424C3.22898 19.7123 3.90762 18.9011 4.56991 17.8657Z" fill="#294023"/>
</svg>
